<svg width="172" height="105" viewBox="0 0 172 105" fill="none" xmlns="http://www.w3.org/2000/svg">
<path d="M3.05928 42C2.91958 42 2.79386 41.9581 2.68211 41.8743C2.59829 41.7625 2.55638 41.6368 2.55638 41.4971V13.1674C2.55638 13.0277 2.59829 12.9159 2.68211 12.8321C2.79386 12.7203 2.91958 12.6645 3.05928 12.6645H7.9625C8.10219 12.6645 8.21395 12.7203 8.29776 12.8321C8.40952 12.9159 8.46539 13.0277 8.46539 13.1674V36.7196C8.46539 36.8593 8.53524 36.9291 8.67493 36.9291H22.3788C22.5185 36.9291 22.6303 36.985 22.7141 37.0968C22.8258 37.1806 22.8817 37.2923 22.8817 37.432V41.4971C22.8817 41.6368 22.8258 41.7625 22.7141 41.8743C22.6303 41.9581 22.5185 42 22.3788 42H3.05928ZM56.964 17.2324C56.964 17.3721 56.9081 17.4979 56.7963 17.6096C56.7125 17.6934 56.6008 17.7353 56.4611 17.7353H42.7153C42.5756 17.7353 42.5057 17.8052 42.5057 17.9449V24.4406C42.5057 24.5803 42.5756 24.6501 42.7153 24.6501H51.7255C51.8652 24.6501 51.9769 24.706 52.0607 24.8178C52.1725 24.9016 52.2284 25.0133 52.2284 25.153V29.2181C52.2284 29.3578 52.1725 29.4835 52.0607 29.5953C51.9769 29.6791 51.8652 29.721 51.7255 29.721H42.7153C42.5756 29.721 42.5057 29.7908 42.5057 29.9305V36.7196C42.5057 36.8593 42.5756 36.9291 42.7153 36.9291H56.4611C56.6008 36.9291 56.7125 36.985 56.7963 37.0968C56.9081 37.1806 56.964 37.2923 56.964 37.432V41.4971C56.964 41.6368 56.9081 41.7625 56.7963 41.8743C56.7125 41.9581 56.6008 42 56.4611 42H37.0996C36.9599 42 36.8342 41.9581 36.7224 41.8743C36.6386 41.7625 36.5967 41.6368 36.5967 41.4971V13.1674C36.5967 13.0277 36.6386 12.9159 36.7224 12.8321C36.8342 12.7203 36.9599 12.6645 37.0996 12.6645H56.4611C56.6008 12.6645 56.7125 12.7203 56.7963 12.8321C56.9081 12.9159 56.964 13.0277 56.964 13.1674V17.2324ZM89.7772 42C89.4978 42 89.3162 41.8603 89.2324 41.5809L87.9751 37.4739C87.9193 37.3622 87.8494 37.3063 87.7656 37.3063H77.4563C77.3725 37.3063 77.3026 37.3622 77.2467 37.4739L76.0314 41.5809C75.9476 41.8603 75.766 42 75.4866 42H70.1643C69.9967 42 69.8709 41.9581 69.7871 41.8743C69.7033 41.7625 69.6893 41.6089 69.7452 41.4133L78.7973 13.0836C78.8811 12.8042 79.0627 12.6645 79.3421 12.6645H85.9217C86.201 12.6645 86.3826 12.8042 86.4665 13.0836L95.5186 41.4133C95.5465 41.4692 95.5605 41.539 95.5605 41.6228C95.5605 41.8743 95.4068 42 95.0995 42H89.7772ZM78.7554 32.4869C78.7275 32.6545 78.7833 32.7384 78.923 32.7384H86.2988C86.4665 32.7384 86.5223 32.6545 86.4665 32.4869L82.6948 20.0403C82.6668 19.9285 82.6249 19.8866 82.569 19.9145C82.5132 19.9145 82.4712 19.9564 82.4433 20.0403L78.7554 32.4869ZM125.395 42C125.115 42 124.92 41.8743 124.808 41.6228L119.569 30.0143C119.514 29.9026 119.43 29.8467 119.318 29.8467H115.421C115.281 29.8467 115.211 29.9166 115.211 30.0562V41.4971C115.211 41.6368 115.155 41.7625 115.043 41.8743C114.96 41.9581 114.848 42 114.708 42H109.805C109.665 42 109.539 41.9581 109.428 41.8743C109.344 41.7625 109.302 41.6368 109.302 41.4971V13.1674C109.302 13.0277 109.344 12.9159 109.428 12.8321C109.539 12.7203 109.665 12.6645 109.805 12.6645H121.791C123.579 12.6645 125.143 13.0277 126.484 13.7541C127.853 14.4805 128.901 15.5142 129.627 16.8553C130.382 18.1963 130.759 19.7469 130.759 21.507C130.759 23.4069 130.284 25.0413 129.334 26.4103C128.384 27.7513 127.057 28.7012 125.353 29.26C125.213 29.3159 125.171 29.4137 125.227 29.5534L130.926 41.4133C130.982 41.525 131.01 41.6089 131.01 41.6647C131.01 41.8882 130.857 42 130.549 42H125.395ZM115.421 17.7353C115.281 17.7353 115.211 17.8052 115.211 17.9449V25.1111C115.211 25.2508 115.281 25.3207 115.421 25.3207H120.91C122.084 25.3207 123.034 24.9714 123.76 24.273C124.515 23.5745 124.892 22.6665 124.892 21.5489C124.892 20.4314 124.515 19.5234 123.76 18.8249C123.034 18.0985 122.084 17.7353 120.91 17.7353H115.421ZM161.949 13.1674C161.949 13.0277 161.991 12.9159 162.075 12.8321C162.187 12.7203 162.312 12.6645 162.452 12.6645H167.355C167.495 12.6645 167.607 12.7203 167.691 12.8321C167.802 12.9159 167.858 13.0277 167.858 13.1674V41.4971C167.858 41.6368 167.802 41.7625 167.691 41.8743C167.607 41.9581 167.495 42 167.355 42H162.62C162.34 42 162.145 41.8882 162.033 41.6647L151.179 23.7282C151.123 23.6443 151.067 23.6164 151.011 23.6443C150.955 23.6443 150.927 23.7002 150.927 23.812L151.011 41.4971C151.011 41.6368 150.955 41.7625 150.844 41.8743C150.76 41.9581 150.648 42 150.508 42H145.605C145.465 42 145.34 41.9581 145.228 41.8743C145.144 41.7625 145.102 41.6368 145.102 41.4971V13.1674C145.102 13.0277 145.144 12.9159 145.228 12.8321C145.34 12.7203 145.465 12.6645 145.605 12.6645H150.341C150.62 12.6645 150.816 12.7762 150.927 12.9997L161.74 30.8525C161.795 30.9363 161.851 30.9782 161.907 30.9782C161.963 30.9503 161.991 30.8804 161.991 30.7687L161.949 13.1674Z" fill="#D9D9D9"/>
<path d="M9.04842 66.1074C7.67298 66.1074 6.46456 65.8422 5.42316 65.3116C4.38175 64.7615 3.56632 63.9951 2.97684 63.0127C2.40702 62.0106 2.12211 60.8611 2.12211 59.5643V51.459C2.12211 50.1818 2.40702 49.052 2.97684 48.0695C3.56632 47.0871 4.38175 46.3306 5.42316 45.8001C6.46456 45.2499 7.67298 44.9748 9.04842 44.9748C10.4239 44.9748 11.6323 45.2401 12.6737 45.7706C13.7151 46.3011 14.5207 47.0478 15.0905 48.0106C15.68 48.9734 15.9747 50.0836 15.9747 51.3411C15.9747 51.4394 15.9453 51.518 15.8863 51.5769C15.8274 51.6358 15.7586 51.6653 15.68 51.6653L14.1768 51.7537C13.9804 51.7537 13.8821 51.6653 13.8821 51.4885V51.4001C13.8821 50.005 13.44 48.8948 12.5558 48.0695C11.6716 47.2246 10.5025 46.8022 9.04842 46.8022C7.59439 46.8022 6.42526 47.2246 5.54105 48.0695C4.65684 48.9144 4.21474 50.0246 4.21474 51.4001V59.6527C4.21474 61.0281 4.65684 62.1383 5.54105 62.9832C6.42526 63.8281 7.59439 64.2506 9.04842 64.2506C10.5025 64.2506 11.6716 63.838 12.5558 63.0127C13.44 62.1678 13.8821 61.0478 13.8821 59.6527V59.5937C13.8821 59.4169 13.9804 59.3285 14.1768 59.3285L15.68 59.4169C15.8765 59.4169 15.9747 59.5053 15.9747 59.6822C15.9747 60.9594 15.68 62.0892 15.0905 63.0716C14.5207 64.0344 13.7151 64.7811 12.6737 65.3116C11.6323 65.8422 10.4239 66.1074 9.04842 66.1074ZM27.0398 66.078C25.6447 66.078 24.4166 65.793 23.3556 65.2232C22.2945 64.6534 21.4693 63.8576 20.8798 62.8358C20.31 61.7944 20.0251 60.5958 20.0251 59.2401V51.8127C20.0251 50.4569 20.31 49.2681 20.8798 48.2464C21.4693 47.205 22.2945 46.3994 23.3556 45.8295C24.4166 45.2597 25.6447 44.9748 27.0398 44.9748C28.4349 44.9748 29.663 45.2597 30.724 45.8295C31.8047 46.3994 32.63 47.205 33.1998 48.2464C33.7893 49.2681 34.084 50.4569 34.084 51.8127V59.2401C34.084 60.5958 33.7893 61.7944 33.1998 62.8358C32.63 63.8576 31.8047 64.6534 30.724 65.2232C29.663 65.793 28.4349 66.078 27.0398 66.078ZM27.0398 64.2801C28.5331 64.2801 29.7317 63.8281 30.6356 62.9243C31.5395 62.0204 31.9914 60.8218 31.9914 59.3285V51.7832C31.9914 50.2899 31.5395 49.0913 30.6356 48.1874C29.7317 47.2639 28.5331 46.8022 27.0398 46.8022C25.5661 46.8022 24.3773 47.2639 23.4735 48.1874C22.5696 49.0913 22.1177 50.2899 22.1177 51.7832V59.3285C22.1177 60.8218 22.5696 62.0204 23.4735 62.9243C24.3773 63.8281 25.5661 64.2801 27.0398 64.2801ZM39.3029 65.8422C39.1064 65.8422 39.0082 65.7439 39.0082 65.5474V45.5053C39.0082 45.3088 39.1064 45.2106 39.3029 45.2106H46.2587C48.204 45.2106 49.7464 45.7215 50.8861 46.7432C52.0454 47.765 52.625 49.1502 52.625 50.899V60.1537C52.625 61.9025 52.0454 63.2878 50.8861 64.3095C49.7464 65.3313 48.204 65.8422 46.2587 65.8422H39.3029ZM41.1008 63.8969C41.1008 63.9755 41.1401 64.0148 41.2187 64.0148H46.3471C47.6243 64.0148 48.6363 63.6415 49.3829 62.8948C50.1492 62.1481 50.5324 61.146 50.5324 59.8885V51.1937C50.5324 49.9165 50.1591 48.9046 49.4124 48.158C48.6657 47.4113 47.644 47.038 46.3471 47.038H41.2187C41.1401 47.038 41.1008 47.0773 41.1008 47.1558V63.8969ZM70.5793 46.7432C70.5793 46.9397 70.4811 47.038 70.2846 47.038H59.4383C59.3597 47.038 59.3204 47.0773 59.3204 47.1558V54.4358C59.3204 54.5144 59.3597 54.5537 59.4383 54.5537H67.0425C67.239 54.5537 67.3372 54.652 67.3372 54.8485V56.0864C67.3372 56.2829 67.239 56.3811 67.0425 56.3811H59.4383C59.3597 56.3811 59.3204 56.4204 59.3204 56.499V63.8969C59.3204 63.9755 59.3597 64.0148 59.4383 64.0148H70.2846C70.4811 64.0148 70.5793 64.113 70.5793 64.3095V65.5474C70.5793 65.7439 70.4811 65.8422 70.2846 65.8422H57.5225C57.326 65.8422 57.2278 65.7439 57.2278 65.5474V45.5053C57.2278 45.3088 57.326 45.2106 57.5225 45.2106H70.2846C70.4811 45.2106 70.5793 45.3088 70.5793 45.5053V46.7432ZM86.9273 66.078C84.707 66.078 82.9484 65.5769 81.6515 64.5748C80.3744 63.5727 79.7358 62.2365 79.7358 60.5664V59.6527C79.7358 59.4562 79.834 59.358 80.0305 59.358H81.4747C81.6712 59.358 81.7694 59.4562 81.7694 59.6527V60.4485C81.7694 61.5881 82.241 62.5116 83.1842 63.219C84.1273 63.9067 85.434 64.2506 87.1042 64.2506C88.6172 64.2506 89.7666 63.9362 90.5526 63.3074C91.3386 62.659 91.7315 61.8043 91.7315 60.7432C91.7315 60.0555 91.5449 59.466 91.1715 58.9748C90.8179 58.4836 90.2579 58.0218 89.4915 57.5895C88.7449 57.1573 87.6838 56.6562 86.3084 56.0864C84.8347 55.4969 83.6852 54.986 82.86 54.5537C82.0544 54.1018 81.3961 53.532 80.8852 52.8443C80.394 52.1369 80.1484 51.2527 80.1484 50.1916C80.1484 48.5411 80.7182 47.2639 81.8579 46.3601C83.0172 45.4365 84.5989 44.9748 86.6031 44.9748C88.7842 44.9748 90.5035 45.4857 91.761 46.5074C93.0186 47.5292 93.6473 48.885 93.6473 50.5748V51.2232C93.6473 51.4197 93.5491 51.518 93.3526 51.518H91.8789C91.6824 51.518 91.5842 51.4197 91.5842 51.2232V50.6927C91.5842 49.553 91.1322 48.6197 90.2284 47.8927C89.3442 47.1657 88.1063 46.8022 86.5147 46.8022C85.1196 46.8022 84.0487 47.0871 83.3021 47.6569C82.5554 48.2267 82.1821 49.052 82.1821 50.1327C82.1821 50.8401 82.3589 51.4295 82.7126 51.9011C83.0859 52.353 83.6066 52.7558 84.2747 53.1095C84.9624 53.4436 86.0137 53.8857 87.4284 54.4358C88.8628 55.0253 90.0122 55.5755 90.8768 56.0864C91.761 56.5973 92.4684 57.226 92.9989 57.9727C93.5491 58.6997 93.8242 59.5937 93.8242 60.6548C93.8242 62.3053 93.2151 63.6218 91.9968 64.6043C90.7786 65.5867 89.0887 66.078 86.9273 66.078ZM109.916 45.5053C109.916 45.3088 110.015 45.2106 110.211 45.2106H111.714C111.911 45.2106 112.009 45.3088 112.009 45.5053V65.5474C112.009 65.7439 111.911 65.8422 111.714 65.8422H110.211C110.015 65.8422 109.916 65.7439 109.916 65.5474V56.499C109.916 56.4204 109.877 56.3811 109.798 56.3811H100.396C100.318 56.3811 100.278 56.4204 100.278 56.499V65.5474C100.278 65.7439 100.18 65.8422 99.9837 65.8422H98.4806C98.2841 65.8422 98.1858 65.7439 98.1858 65.5474V45.5053C98.1858 45.3088 98.2841 45.2106 98.4806 45.2106H99.9837C100.18 45.2106 100.278 45.3088 100.278 45.5053V54.4358C100.278 54.5144 100.318 54.5537 100.396 54.5537H109.798C109.877 54.5537 109.916 54.5144 109.916 54.4358V45.5053ZM129.903 65.8422C129.727 65.8422 129.609 65.7636 129.55 65.6064L128.371 61.8927C128.351 61.8337 128.312 61.8043 128.253 61.8043H119.44C119.381 61.8043 119.342 61.8337 119.322 61.8927L118.143 65.6064C118.084 65.7636 117.967 65.8422 117.79 65.8422H116.198C115.982 65.8422 115.903 65.7341 115.962 65.518L122.476 45.4464C122.535 45.2892 122.653 45.2106 122.83 45.2106H124.834C125.011 45.2106 125.129 45.2892 125.188 45.4464L131.731 65.518L131.76 65.6358C131.76 65.7734 131.672 65.8422 131.495 65.8422H129.903ZM119.912 59.9474C119.892 59.9867 119.892 60.026 119.912 60.0653C119.951 60.085 119.99 60.0948 120.03 60.0948H127.634C127.673 60.0948 127.703 60.085 127.722 60.0653C127.762 60.026 127.771 59.9867 127.752 59.9474L123.92 47.9222C123.901 47.8829 123.871 47.8632 123.832 47.8632C123.793 47.8632 123.763 47.8829 123.743 47.9222L119.912 59.9474ZM147.6 65.8422C147.423 65.8422 147.305 65.7734 147.246 65.6358L142.914 56.499C142.894 56.4401 142.855 56.4106 142.796 56.4106H137.785C137.707 56.4106 137.667 56.4499 137.667 56.5285V65.5474C137.667 65.7439 137.569 65.8422 137.373 65.8422H135.87C135.673 65.8422 135.575 65.7439 135.575 65.5474V45.5053C135.575 45.3088 135.673 45.2106 135.87 45.2106H143.503C145.193 45.2106 146.559 45.7411 147.6 46.8022C148.641 47.8436 149.162 49.2092 149.162 50.899C149.162 52.2744 148.789 53.4436 148.042 54.4064C147.296 55.3692 146.284 55.9881 145.006 56.2632C144.928 56.3025 144.908 56.3516 144.947 56.4106L149.368 65.4885C149.388 65.5278 149.398 65.5769 149.398 65.6358C149.398 65.7734 149.319 65.8422 149.162 65.8422H147.6ZM137.785 47.038C137.707 47.038 137.667 47.0773 137.667 47.1558V54.6127C137.667 54.6913 137.707 54.7306 137.785 54.7306H143.267C144.407 54.7306 145.331 54.3769 146.038 53.6695C146.745 52.9622 147.099 52.0387 147.099 50.899C147.099 49.7594 146.745 48.8358 146.038 48.1285C145.331 47.4015 144.407 47.038 143.267 47.038H137.785ZM166.973 46.7432C166.973 46.9397 166.875 47.038 166.679 47.038H155.832C155.754 47.038 155.714 47.0773 155.714 47.1558V54.4358C155.714 54.5144 155.754 54.5537 155.832 54.5537H163.436C163.633 54.5537 163.731 54.652 163.731 54.8485V56.0864C163.731 56.2829 163.633 56.3811 163.436 56.3811H155.832C155.754 56.3811 155.714 56.4204 155.714 56.499V63.8969C155.714 63.9755 155.754 64.0148 155.832 64.0148H166.679C166.875 64.0148 166.973 64.113 166.973 64.3095V65.5474C166.973 65.7439 166.875 65.8422 166.679 65.8422H153.916C153.72 65.8422 153.622 65.7439 153.622 65.5474V45.5053C153.622 45.3088 153.72 45.2106 153.916 45.2106H166.679C166.875 45.2106 166.973 45.3088 166.973 45.5053V46.7432Z" fill="#D9D9D9"/>
<path d="M16.4942 98.1052C16.143 98.1052 15.9133 97.9566 15.8053 97.6594L11.3474 87.3657C11.2933 87.2577 11.2123 87.2036 11.1042 87.2036H9.40211C9.26702 87.2036 9.19947 87.2712 9.19947 87.4063V97.4973C9.19947 97.6865 9.14544 97.835 9.03737 97.9431C8.9293 98.0512 8.7807 98.1052 8.59158 98.1052H2.18842C1.9993 98.1052 1.8507 98.0512 1.74263 97.9431C1.63456 97.835 1.58053 97.6865 1.58053 97.4973V70.3447C1.58053 70.1556 1.63456 70.007 1.74263 69.8989C1.8507 69.7908 1.9993 69.7368 2.18842 69.7368H14.4679C16.3051 69.7368 17.9126 70.115 19.2905 70.8715C20.6954 71.628 21.7761 72.6952 22.5326 74.0731C23.3161 75.424 23.7079 76.991 23.7079 78.7742C23.7079 80.5573 23.2621 82.1243 22.3705 83.4752C21.506 84.7991 20.3037 85.7717 18.7637 86.3931C18.6286 86.4472 18.5881 86.5417 18.6421 86.6768L23.7889 97.3758C23.843 97.5379 23.87 97.6324 23.87 97.6594C23.87 97.7945 23.816 97.9026 23.7079 97.9836C23.5998 98.0647 23.4647 98.1052 23.3026 98.1052H16.4942ZM9.40211 76.2615C9.26702 76.2615 9.19947 76.3291 9.19947 76.4642V81.2057C9.19947 81.3408 9.26702 81.4084 9.40211 81.4084H13.2116C14.0761 81.4084 14.7786 81.1787 15.3189 80.7194C15.8593 80.2331 16.1295 79.6117 16.1295 78.8552C16.1295 78.0717 15.8593 77.4503 15.3189 76.991C14.7786 76.5047 14.0761 76.2615 13.2116 76.2615H9.40211ZM51.9237 75.6536C51.9237 75.8428 51.8697 75.9914 51.7616 76.0994C51.6535 76.2075 51.5049 76.2615 51.3158 76.2615H39.1984C39.0634 76.2615 38.9958 76.3291 38.9958 76.4642V80.2736C38.9958 80.4087 39.0634 80.4763 39.1984 80.4763H46.6958C46.8849 80.4763 47.0335 80.5303 47.1416 80.6384C47.2497 80.7465 47.3037 80.895 47.3037 81.0842V86.3526C47.3037 86.5417 47.2497 86.6903 47.1416 86.7984C47.0335 86.9065 46.8849 86.9605 46.6958 86.9605H39.1984C39.0634 86.9605 38.9958 87.028 38.9958 87.1631V91.3779C38.9958 91.5129 39.0634 91.5805 39.1984 91.5805H51.3158C51.5049 91.5805 51.6535 91.6345 51.7616 91.7426C51.8697 91.8507 51.9237 91.9993 51.9237 92.1884V97.4973C51.9237 97.6865 51.8697 97.835 51.7616 97.9431C51.6535 98.0512 51.5049 98.1052 51.3158 98.1052H31.9848C31.7956 98.1052 31.647 98.0512 31.539 97.9431C31.4309 97.835 31.3769 97.6865 31.3769 97.4973V70.3447C31.3769 70.1556 31.4309 70.007 31.539 69.8989C31.647 69.7908 31.7956 69.7368 31.9848 69.7368H51.3158C51.5049 69.7368 51.6535 69.7908 51.7616 69.8989C51.8697 70.007 51.9237 70.1556 51.9237 70.3447V75.6536ZM71.7132 69.7368C73.6315 69.7368 75.3201 70.1286 76.779 70.9121C78.238 71.6686 79.3592 72.7628 80.1427 74.1947C80.9532 75.5996 81.3585 77.2207 81.3585 79.0579C81.3585 80.868 80.9397 82.4621 80.1022 83.84C79.2646 85.2179 78.0894 86.285 76.5764 87.0415C75.0634 87.798 73.3208 88.1763 71.3485 88.1763H67.0527C66.9176 88.1763 66.8501 88.2438 66.8501 88.3789V97.4973C66.8501 97.6865 66.796 97.835 66.688 97.9431C66.5799 98.0512 66.4313 98.1052 66.2422 98.1052H59.839C59.6499 98.1052 59.5013 98.0512 59.3932 97.9431C59.2851 97.835 59.2311 97.6865 59.2311 97.4973V70.3447C59.2311 70.1556 59.2851 70.007 59.3932 69.8989C59.5013 69.7908 59.6499 69.7368 59.839 69.7368H71.7132ZM70.4569 82.0973C71.4566 82.0973 72.2536 81.8407 72.848 81.3273C73.4694 80.787 73.7801 80.0845 73.7801 79.22C73.7801 78.3284 73.4694 77.6124 72.848 77.0721C72.2536 76.5317 71.4566 76.2615 70.4569 76.2615H67.0527C66.9176 76.2615 66.8501 76.3291 66.8501 76.4642V81.8947C66.8501 82.0298 66.9176 82.0973 67.0527 82.0973H70.4569ZM109.063 75.6536C109.063 75.8428 109.009 75.9914 108.901 76.0994C108.792 76.2075 108.644 76.2615 108.455 76.2615H96.3374C96.2023 76.2615 96.1348 76.3291 96.1348 76.4642V80.2736C96.1348 80.4087 96.2023 80.4763 96.3374 80.4763H103.835C104.024 80.4763 104.172 80.5303 104.281 80.6384C104.389 80.7465 104.443 80.895 104.443 81.0842V86.3526C104.443 86.5417 104.389 86.6903 104.281 86.7984C104.172 86.9065 104.024 86.9605 103.835 86.9605H96.3374C96.2023 86.9605 96.1348 87.028 96.1348 87.1631V91.3779C96.1348 91.5129 96.2023 91.5805 96.3374 91.5805H108.455C108.644 91.5805 108.792 91.6345 108.901 91.7426C109.009 91.8507 109.063 91.9993 109.063 92.1884V97.4973C109.063 97.6865 109.009 97.835 108.901 97.9431C108.792 98.0512 108.644 98.1052 108.455 98.1052H89.1237C88.9346 98.1052 88.786 98.0512 88.6779 97.9431C88.5698 97.835 88.5158 97.6865 88.5158 97.4973V70.3447C88.5158 70.1556 88.5698 70.007 88.6779 69.8989C88.786 69.7908 88.9346 69.7368 89.1237 69.7368H108.455C108.644 69.7368 108.792 69.7908 108.901 69.8989C109.009 70.007 109.063 70.1556 109.063 70.3447V75.6536ZM135.458 98.1052C135.08 98.1052 134.85 97.9296 134.769 97.5784L133.877 94.4173C133.823 94.3093 133.756 94.2552 133.675 94.2552H125.083C125.002 94.2552 124.935 94.3093 124.881 94.4173L123.989 97.5784C123.908 97.9296 123.678 98.1052 123.3 98.1052H116.37C115.884 98.1052 115.708 97.8756 115.843 97.4163L124.394 70.2231C124.502 69.8989 124.732 69.7368 125.083 69.7368H133.675C134.026 69.7368 134.256 69.8989 134.364 70.2231L142.915 97.4163C142.942 97.4703 142.955 97.5514 142.955 97.6594C142.955 97.9566 142.766 98.1052 142.388 98.1052H135.458ZM126.664 88.1763C126.637 88.3384 126.691 88.4194 126.826 88.4194H131.892C132.054 88.4194 132.108 88.3384 132.054 88.1763L129.46 79.0984C129.433 79.0173 129.393 78.9768 129.338 78.9768C129.284 78.9768 129.244 79.0173 129.217 79.0984L126.664 88.1763ZM167.444 69.7368C167.633 69.7368 167.781 69.7908 167.889 69.8989C167.998 70.007 168.052 70.1556 168.052 70.3447V75.6942C168.052 75.8833 167.998 76.0319 167.889 76.14C167.781 76.248 167.633 76.3021 167.444 76.3021H160.635C160.5 76.3021 160.433 76.3696 160.433 76.5047V97.4973C160.433 97.6865 160.379 97.835 160.271 97.9431C160.162 98.0512 160.014 98.1052 159.825 98.1052H153.422C153.232 98.1052 153.084 98.0512 152.976 97.9431C152.868 97.835 152.814 97.6865 152.814 97.4973V76.5047C152.814 76.3696 152.746 76.3021 152.611 76.3021H146.005C145.816 76.3021 145.668 76.248 145.559 76.14C145.451 76.0319 145.397 75.8833 145.397 75.6942V70.3447C145.397 70.1556 145.451 70.007 145.559 69.8989C145.668 69.7908 145.816 69.7368 146.005 69.7368H167.444Z" fill="#D9D9D9"/>
</svg>
