<svg width="82" height="50" viewBox="0 0 82 50" fill="none" xmlns="http://www.w3.org/2000/svg">
<path d="M1.4568 20C1.39028 20 1.33041 19.98 1.27719 19.9401C1.23728 19.8869 1.21732 19.827 1.21732 19.7605V6.27017C1.21732 6.20365 1.23728 6.15044 1.27719 6.11053C1.33041 6.05731 1.39028 6.0307 1.4568 6.0307H3.79167C3.85819 6.0307 3.9114 6.05731 3.95132 6.11053C4.00453 6.15044 4.03114 6.20365 4.03114 6.27017V17.4855C4.03114 17.552 4.0644 17.5853 4.13092 17.5853H10.6566C10.7231 17.5853 10.7763 17.6119 10.8162 17.6651C10.8694 17.705 10.8961 17.7583 10.8961 17.8248V19.7605C10.8961 19.827 10.8694 19.8869 10.8162 19.9401C10.7763 19.98 10.7231 20 10.6566 20H1.4568ZM27.1257 8.20592C27.1257 8.27244 27.0991 8.33231 27.0459 8.38553C27.006 8.42544 26.9527 8.44539 26.8862 8.44539H20.3406C20.2741 8.44539 20.2408 8.47865 20.2408 8.54518V11.6384C20.2408 11.7049 20.2741 11.7382 20.3406 11.7382H24.6312C24.6977 11.7382 24.7509 11.7648 24.7908 11.818C24.844 11.8579 24.8707 11.9111 24.8707 11.9776V13.9134C24.8707 13.9799 24.844 14.0398 24.7908 14.093C24.7509 14.1329 24.6977 14.1529 24.6312 14.1529H20.3406C20.2741 14.1529 20.2408 14.1861 20.2408 14.2526V17.4855C20.2408 17.552 20.2741 17.5853 20.3406 17.5853H26.8862C26.9527 17.5853 27.006 17.6119 27.0459 17.6651C27.0991 17.705 27.1257 17.7583 27.1257 17.8248V19.7605C27.1257 19.827 27.0991 19.8869 27.0459 19.9401C27.006 19.98 26.9527 20 26.8862 20H17.6665C17.6 20 17.5401 19.98 17.4869 19.9401C17.447 19.8869 17.427 19.827 17.427 19.7605V6.27017C17.427 6.20365 17.447 6.15044 17.4869 6.11053C17.5401 6.05731 17.6 6.0307 17.6665 6.0307H26.8862C26.9527 6.0307 27.006 6.05731 27.0459 6.11053C27.0991 6.15044 27.1257 6.20365 27.1257 6.27017V8.20592ZM42.751 20C42.618 20 42.5315 19.9335 42.4916 19.8004L41.8929 17.8447C41.8663 17.7915 41.8331 17.7649 41.7931 17.7649H36.8839C36.844 17.7649 36.8108 17.7915 36.7842 17.8447L36.2054 19.8004C36.1655 19.9335 36.079 20 35.946 20H33.4116C33.3317 20 33.2719 19.98 33.232 19.9401C33.1921 19.8869 33.1854 19.8137 33.212 19.7206L37.5225 6.23026C37.5624 6.09722 37.6489 6.0307 37.782 6.0307H40.9151C41.0481 6.0307 41.1346 6.09722 41.1745 6.23026L45.485 19.7206C45.4983 19.7472 45.505 19.7805 45.505 19.8204C45.505 19.9401 45.4318 20 45.2855 20H42.751ZM37.5026 15.47C37.4893 15.5498 37.5159 15.5897 37.5824 15.5897H41.0947C41.1745 15.5897 41.2011 15.5498 41.1745 15.47L39.3785 9.54298C39.3652 9.48977 39.3452 9.46981 39.3186 9.48311C39.292 9.48311 39.272 9.50307 39.2587 9.54298L37.5026 15.47ZM59.7117 20C59.5787 20 59.4856 19.9401 59.4324 19.8204L56.9378 14.2925C56.9112 14.2393 56.8713 14.2127 56.8181 14.2127H54.9622C54.8957 14.2127 54.8624 14.246 54.8624 14.3125V19.7605C54.8624 19.827 54.8358 19.8869 54.7826 19.9401C54.7427 19.98 54.6894 20 54.6229 20H52.2881C52.2215 20 52.1617 19.98 52.1084 19.9401C52.0685 19.8869 52.0486 19.827 52.0486 19.7605V6.27017C52.0486 6.20365 52.0685 6.15044 52.1084 6.11053C52.1617 6.05731 52.2215 6.0307 52.2881 6.0307H57.9955C58.847 6.0307 59.592 6.20365 60.2306 6.54956C60.8825 6.89547 61.3814 7.38772 61.7273 8.02632C62.0865 8.66491 62.2661 9.40329 62.2661 10.2414C62.2661 11.1461 62.04 11.9244 61.5876 12.5763C61.1353 13.2149 60.5033 13.6673 59.6918 13.9333C59.6253 13.9599 59.6053 14.0065 59.6319 14.073L62.3459 19.7206C62.3726 19.7738 62.3859 19.8137 62.3859 19.8404C62.3859 19.9468 62.3127 20 62.1663 20H59.7117ZM54.9622 8.44539C54.8957 8.44539 54.8624 8.47865 54.8624 8.54518V11.9577C54.8624 12.0242 54.8957 12.0575 54.9622 12.0575H57.5764C58.1352 12.0575 58.5875 11.8912 58.9334 11.5586C59.2927 11.2259 59.4723 10.7936 59.4723 10.2614C59.4723 9.72924 59.2927 9.29686 58.9334 8.96425C58.5875 8.61835 58.1352 8.44539 57.5764 8.44539H54.9622ZM77.1186 6.27017C77.1186 6.20365 77.1386 6.15044 77.1785 6.11053C77.2317 6.05731 77.2916 6.0307 77.3581 6.0307H79.693C79.7595 6.0307 79.8127 6.05731 79.8526 6.11053C79.9058 6.15044 79.9324 6.20365 79.9324 6.27017V19.7605C79.9324 19.827 79.9058 19.8869 79.8526 19.9401C79.8127 19.98 79.7595 20 79.693 20H77.4379C77.3049 20 77.2118 19.9468 77.1585 19.8404L71.9899 11.2991C71.9633 11.2592 71.9367 11.2459 71.9101 11.2592C71.8835 11.2592 71.8702 11.2858 71.8702 11.339L71.9101 19.7605C71.9101 19.827 71.8835 19.8869 71.8303 19.9401C71.7903 19.98 71.7371 20 71.6706 20H69.3357C69.2692 20 69.2093 19.98 69.1561 19.9401C69.1162 19.8869 69.0963 19.827 69.0963 19.7605V6.27017C69.0963 6.20365 69.1162 6.15044 69.1561 6.11053C69.2093 6.05731 69.2692 6.0307 69.3357 6.0307H71.5908C71.7238 6.0307 71.8169 6.08392 71.8702 6.19035L77.0188 14.6917C77.0455 14.7316 77.0721 14.7515 77.0987 14.7515C77.1253 14.7382 77.1386 14.705 77.1386 14.6518L77.1186 6.27017Z" fill="#0D0D0D"/>
<path d="M4.30877 31.6701C3.6538 31.6701 3.07836 31.5438 2.58246 31.2912C2.08655 31.0292 1.69825 30.6643 1.41754 30.1965C1.1462 29.7193 1.01053 29.1719 1.01053 28.5543V24.6947C1.01053 24.0865 1.1462 23.5485 1.41754 23.0807C1.69825 22.6128 2.08655 22.2526 2.58246 22C3.07836 21.738 3.6538 21.607 4.30877 21.607C4.96374 21.607 5.53918 21.7333 6.03509 21.9859C6.53099 22.2386 6.91462 22.5941 7.18597 23.0526C7.46667 23.5111 7.60702 24.0397 7.60702 24.6386C7.60702 24.6853 7.59298 24.7228 7.56491 24.7508C7.53684 24.7789 7.50409 24.7929 7.46667 24.7929L6.75088 24.8351C6.65731 24.8351 6.61053 24.7929 6.61053 24.7087V24.6666C6.61053 24.0023 6.4 23.4736 5.97895 23.0807C5.55789 22.6783 5.00117 22.4772 4.30877 22.4772C3.61637 22.4772 3.05965 22.6783 2.6386 23.0807C2.21754 23.483 2.00702 24.0117 2.00702 24.6666V28.5965C2.00702 29.2514 2.21754 29.7801 2.6386 30.1824C3.05965 30.5848 3.61637 30.7859 4.30877 30.7859C5.00117 30.7859 5.55789 30.5894 5.97895 30.1965C6.4 29.7941 6.61053 29.2608 6.61053 28.5965V28.5684C6.61053 28.4842 6.65731 28.4421 6.75088 28.4421L7.46667 28.4842C7.56023 28.4842 7.60702 28.5263 7.60702 28.6105C7.60702 29.2187 7.46667 29.7567 7.18597 30.2245C6.91462 30.683 6.53099 31.0386 6.03509 31.2912C5.53918 31.5438 4.96374 31.6701 4.30877 31.6701ZM12.8761 31.6561C12.2118 31.6561 11.627 31.5204 11.1217 31.2491C10.6164 30.9777 10.2235 30.5988 9.94276 30.1122C9.67142 29.6163 9.53575 29.0456 9.53575 28.4V24.8631C9.53575 24.2175 9.67142 23.6514 9.94276 23.1649C10.2235 22.669 10.6164 22.2853 11.1217 22.014C11.627 21.7427 12.2118 21.607 12.8761 21.607C13.5404 21.607 14.1252 21.7427 14.6305 22.014C15.1451 22.2853 15.5381 22.669 15.8094 23.1649C16.0901 23.6514 16.2305 24.2175 16.2305 24.8631V28.4C16.2305 29.0456 16.0901 29.6163 15.8094 30.1122C15.5381 30.5988 15.1451 30.9777 14.6305 31.2491C14.1252 31.5204 13.5404 31.6561 12.8761 31.6561ZM12.8761 30.8C13.5872 30.8 14.158 30.5848 14.5884 30.1543C15.0188 29.7239 15.234 29.1532 15.234 28.4421V24.8491C15.234 24.138 15.0188 23.5672 14.5884 23.1368C14.158 22.697 13.5872 22.4772 12.8761 22.4772C12.1743 22.4772 11.6083 22.697 11.1779 23.1368C10.7474 23.5672 10.5322 24.138 10.5322 24.8491V28.4421C10.5322 29.1532 10.7474 29.7239 11.1779 30.1543C11.6083 30.5848 12.1743 30.8 12.8761 30.8ZM18.7157 31.5438C18.6221 31.5438 18.5753 31.497 18.5753 31.4035V21.8596C18.5753 21.766 18.6221 21.7193 18.7157 21.7193H22.028C22.9543 21.7193 23.6888 21.9625 24.2315 22.4491C24.7835 22.9356 25.0595 23.5953 25.0595 24.428V28.8351C25.0595 29.6678 24.7835 30.3274 24.2315 30.814C23.6888 31.3005 22.9543 31.5438 22.028 31.5438H18.7157ZM19.5718 30.6175C19.5718 30.6549 19.5905 30.6736 19.628 30.6736H22.0701C22.6783 30.6736 23.1601 30.4959 23.5157 30.1403C23.8806 29.7848 24.063 29.3076 24.063 28.7087V24.5684C24.063 23.9602 23.8853 23.4783 23.5297 23.1228C23.1742 22.7672 22.6876 22.5894 22.0701 22.5894H19.628C19.5905 22.5894 19.5718 22.6082 19.5718 22.6456V30.6175ZM33.6092 22.4491C33.6092 22.5427 33.5624 22.5894 33.4689 22.5894H28.3039C28.2665 22.5894 28.2478 22.6082 28.2478 22.6456V26.1122C28.2478 26.1497 28.2665 26.1684 28.3039 26.1684H31.925C32.0186 26.1684 32.0653 26.2152 32.0653 26.3087V26.8982C32.0653 26.9918 32.0186 27.0386 31.925 27.0386H28.3039C28.2665 27.0386 28.2478 27.0573 28.2478 27.0947V30.6175C28.2478 30.6549 28.2665 30.6736 28.3039 30.6736H33.4689C33.5624 30.6736 33.6092 30.7204 33.6092 30.814V31.4035C33.6092 31.497 33.5624 31.5438 33.4689 31.5438H27.3917C27.2981 31.5438 27.2513 31.497 27.2513 31.4035V21.8596C27.2513 21.766 27.2981 21.7193 27.3917 21.7193H33.4689C33.5624 21.7193 33.6092 21.766 33.6092 21.8596V22.4491ZM41.394 31.6561C40.3367 31.6561 39.4992 31.4175 38.8817 30.9403C38.2735 30.4631 37.9694 29.8269 37.9694 29.0315V28.5965C37.9694 28.5029 38.0162 28.4561 38.1098 28.4561H38.7975C38.891 28.4561 38.9378 28.5029 38.9378 28.5965V28.9754C38.9378 29.5181 39.1624 29.9579 39.6115 30.2947C40.0606 30.6222 40.6829 30.7859 41.4782 30.7859C42.1986 30.7859 42.746 30.6362 43.1203 30.3368C43.4946 30.028 43.6817 29.621 43.6817 29.1158C43.6817 28.7883 43.5928 28.5076 43.415 28.2736C43.2466 28.0397 42.9799 27.8198 42.615 27.614C42.2595 27.4082 41.7542 27.1696 41.0992 26.8982C40.3975 26.6175 39.8501 26.3742 39.4571 26.1684C39.0735 25.9532 38.76 25.6818 38.5168 25.3543C38.2829 25.0175 38.1659 24.5965 38.1659 24.0912C38.1659 23.3052 38.4372 22.697 38.9799 22.2666C39.532 21.8269 40.2852 21.607 41.2396 21.607C42.2782 21.607 43.0969 21.8503 43.6957 22.3368C44.2946 22.8234 44.594 23.469 44.594 24.2736V24.5824C44.594 24.676 44.5472 24.7228 44.4536 24.7228H43.7519C43.6583 24.7228 43.6115 24.676 43.6115 24.5824V24.3298C43.6115 23.7871 43.3963 23.3427 42.9659 22.9965C42.5448 22.6503 41.9554 22.4772 41.1975 22.4772C40.5331 22.4772 40.0232 22.6128 39.6677 22.8842C39.3121 23.1555 39.1343 23.5485 39.1343 24.0631C39.1343 24.4 39.2185 24.6807 39.387 24.9052C39.5647 25.1204 39.8127 25.3122 40.1308 25.4807C40.4583 25.6397 40.9589 25.8503 41.6326 26.1122C42.3156 26.3929 42.863 26.6549 43.2747 26.8982C43.6957 27.1415 44.0326 27.4409 44.2852 27.7965C44.5472 28.1427 44.6782 28.5684 44.6782 29.0736C44.6782 29.8596 44.3881 30.4865 43.808 30.9543C43.2279 31.4222 42.4232 31.6561 41.394 31.6561ZM52.3411 21.8596C52.3411 21.766 52.3879 21.7193 52.4815 21.7193H53.1973C53.2908 21.7193 53.3376 21.766 53.3376 21.8596V31.4035C53.3376 31.497 53.2908 31.5438 53.1973 31.5438H52.4815C52.3879 31.5438 52.3411 31.497 52.3411 31.4035V27.0947C52.3411 27.0573 52.3224 27.0386 52.285 27.0386H47.8078C47.7704 27.0386 47.7516 27.0573 47.7516 27.0947V31.4035C47.7516 31.497 47.7049 31.5438 47.6113 31.5438H46.8955C46.8019 31.5438 46.7552 31.497 46.7552 31.4035V21.8596C46.7552 21.766 46.8019 21.7193 46.8955 21.7193H47.6113C47.7049 21.7193 47.7516 21.766 47.7516 21.8596V26.1122C47.7516 26.1497 47.7704 26.1684 47.8078 26.1684H52.285C52.3224 26.1684 52.3411 26.1497 52.3411 26.1122V21.8596ZM61.8588 31.5438C61.7746 31.5438 61.7184 31.5064 61.6903 31.4315L61.1289 29.6631C61.1196 29.6351 61.1009 29.621 61.0728 29.621H56.8763C56.8482 29.621 56.8295 29.6351 56.8202 29.6631L56.2588 31.4315C56.2307 31.5064 56.1746 31.5438 56.0903 31.5438H55.3325C55.2295 31.5438 55.1921 31.4924 55.2202 31.3894L58.3219 21.8315C58.35 21.7567 58.4061 21.7193 58.4903 21.7193H59.4447C59.5289 21.7193 59.5851 21.7567 59.6132 21.8315L62.7289 31.3894L62.743 31.4456C62.743 31.5111 62.7009 31.5438 62.6167 31.5438H61.8588ZM57.1009 28.7368C57.0915 28.7555 57.0915 28.7742 57.1009 28.7929C57.1196 28.8023 57.1383 28.807 57.157 28.807H60.7781C60.7968 28.807 60.8108 28.8023 60.8202 28.7929C60.8389 28.7742 60.8436 28.7555 60.8342 28.7368L59.0096 23.0105C59.0003 22.9918 58.9863 22.9824 58.9675 22.9824C58.9488 22.9824 58.9348 22.9918 58.9254 23.0105L57.1009 28.7368ZM70.2857 31.5438C70.2015 31.5438 70.1454 31.5111 70.1173 31.4456L68.0542 27.0947C68.0448 27.0666 68.0261 27.0526 67.998 27.0526H65.6121C65.5746 27.0526 65.5559 27.0713 65.5559 27.1087V31.4035C65.5559 31.497 65.5091 31.5438 65.4156 31.5438H64.6998C64.6062 31.5438 64.5594 31.497 64.5594 31.4035V21.8596C64.5594 21.766 64.6062 21.7193 64.6998 21.7193H68.3349C69.1395 21.7193 69.7898 21.9719 70.2857 22.4772C70.7816 22.9731 71.0296 23.6234 71.0296 24.428C71.0296 25.083 70.8518 25.6397 70.4963 26.0982C70.1407 26.5567 69.6588 26.8514 69.0507 26.9824C69.0132 27.0011 69.0039 27.0245 69.0226 27.0526L71.1278 31.3754C71.1372 31.3941 71.1419 31.4175 71.1419 31.4456C71.1419 31.5111 71.1045 31.5438 71.0296 31.5438H70.2857ZM65.6121 22.5894C65.5746 22.5894 65.5559 22.6082 65.5559 22.6456V26.1965C65.5559 26.2339 65.5746 26.2526 65.6121 26.2526H68.2226C68.7653 26.2526 69.205 26.0842 69.5419 25.7473C69.8787 25.4105 70.0471 24.9707 70.0471 24.428C70.0471 23.8853 69.8787 23.4456 69.5419 23.1087C69.205 22.7625 68.7653 22.5894 68.2226 22.5894H65.6121ZM79.5111 22.4491C79.5111 22.5427 79.4643 22.5894 79.3707 22.5894H74.2058C74.1684 22.5894 74.1497 22.6082 74.1497 22.6456V26.1122C74.1497 26.1497 74.1684 26.1684 74.2058 26.1684H77.8269C77.9204 26.1684 77.9672 26.2152 77.9672 26.3087V26.8982C77.9672 26.9918 77.9204 27.0386 77.8269 27.0386H74.2058C74.1684 27.0386 74.1497 27.0573 74.1497 27.0947V30.6175C74.1497 30.6549 74.1684 30.6736 74.2058 30.6736H79.3707C79.4643 30.6736 79.5111 30.7204 79.5111 30.814V31.4035C79.5111 31.497 79.4643 31.5438 79.3707 31.5438H73.2935C73.2 31.5438 73.1532 31.497 73.1532 31.4035V21.8596C73.1532 21.766 73.2 21.7193 73.2935 21.7193H79.3707C79.4643 21.7193 79.5111 21.766 79.5111 21.8596V22.4491Z" fill="#0D0D0D"/>
<path d="M7.85439 46.193C7.68713 46.193 7.57778 46.1222 7.52632 45.9807L5.40351 41.079C5.37778 41.0275 5.33918 41.0018 5.28772 41.0018H4.47719C4.41287 41.0018 4.3807 41.0339 4.3807 41.0983V45.9035C4.3807 45.9936 4.35497 46.0643 4.30351 46.1158C4.25205 46.1673 4.18129 46.193 4.09123 46.193H1.04211C0.952047 46.193 0.881287 46.1673 0.829825 46.1158C0.778363 46.0643 0.752632 45.9936 0.752632 45.9035V32.9737C0.752632 32.8836 0.778363 32.8129 0.829825 32.7614C0.881287 32.71 0.952047 32.6842 1.04211 32.6842H6.88947C7.76433 32.6842 8.52982 32.8643 9.18596 33.2246C9.85497 33.5848 10.3696 34.093 10.7298 34.7491C11.1029 35.3924 11.2895 36.1386 11.2895 36.9877C11.2895 37.8369 11.0772 38.5831 10.6526 39.2263C10.2409 39.8567 9.66842 40.3199 8.93509 40.6158C8.87076 40.6415 8.85146 40.6866 8.87719 40.7509L11.3281 45.8456C11.3538 45.9228 11.3667 45.9678 11.3667 45.9807C11.3667 46.045 11.3409 46.0965 11.2895 46.1351C11.238 46.1737 11.1737 46.193 11.0965 46.193H7.85439ZM4.47719 35.7912C4.41287 35.7912 4.3807 35.8234 4.3807 35.8877V38.1456C4.3807 38.21 4.41287 38.2421 4.47719 38.2421H6.29123C6.70292 38.2421 7.03743 38.1328 7.29474 37.914C7.55205 37.6825 7.6807 37.3866 7.6807 37.0263C7.6807 36.6532 7.55205 36.3573 7.29474 36.1386C7.03743 35.907 6.70292 35.7912 6.29123 35.7912H4.47719ZM24.7256 35.5018C24.7256 35.5918 24.6998 35.6626 24.6484 35.714C24.5969 35.7655 24.5262 35.7912 24.4361 35.7912H18.6659C18.6016 35.7912 18.5694 35.8234 18.5694 35.8877V37.7018C18.5694 37.7661 18.6016 37.7983 18.6659 37.7983H22.2361C22.3262 37.7983 22.3969 37.824 22.4484 37.8754C22.4998 37.9269 22.5256 37.9977 22.5256 38.0877V40.5965C22.5256 40.6866 22.4998 40.7573 22.4484 40.8088C22.3969 40.8602 22.3262 40.886 22.2361 40.886H18.6659C18.6016 40.886 18.5694 40.9181 18.5694 40.9825V42.9895C18.5694 43.0538 18.6016 43.086 18.6659 43.086H24.4361C24.5262 43.086 24.5969 43.1117 24.6484 43.1632C24.6998 43.2146 24.7256 43.2854 24.7256 43.3754V45.9035C24.7256 45.9936 24.6998 46.0643 24.6484 46.1158C24.5969 46.1673 24.5262 46.193 24.4361 46.193H15.2308C15.1408 46.193 15.07 46.1673 15.0186 46.1158C14.9671 46.0643 14.9414 45.9936 14.9414 45.9035V32.9737C14.9414 32.8836 14.9671 32.8129 15.0186 32.7614C15.07 32.71 15.1408 32.6842 15.2308 32.6842H24.4361C24.5262 32.6842 24.5969 32.71 24.6484 32.7614C24.6998 32.8129 24.7256 32.8836 24.7256 32.9737V35.5018ZM34.1491 32.6842C35.0626 32.6842 35.8667 32.8708 36.5614 33.2439C37.2562 33.6041 37.7901 34.1252 38.1632 34.807C38.5491 35.476 38.7421 36.248 38.7421 37.1228C38.7421 37.9848 38.5427 38.7439 38.1439 39.4C37.7451 40.0562 37.1854 40.5643 36.4649 40.9246C35.7445 41.2848 34.9146 41.4649 33.9755 41.4649H31.9298C31.8655 41.4649 31.8334 41.4971 31.8334 41.5614V45.9035C31.8334 45.9936 31.8076 46.0643 31.7562 46.1158C31.7047 46.1673 31.6339 46.193 31.5439 46.193H28.4948C28.4047 46.193 28.3339 46.1673 28.2825 46.1158C28.231 46.0643 28.2053 45.9936 28.2053 45.9035V32.9737C28.2053 32.8836 28.231 32.8129 28.2825 32.7614C28.3339 32.71 28.4047 32.6842 28.4948 32.6842H34.1491ZM33.5509 38.5702C34.0269 38.5702 34.4065 38.448 34.6895 38.2035C34.9854 37.9462 35.1334 37.6117 35.1334 37.2C35.1334 36.7754 34.9854 36.4345 34.6895 36.1772C34.4065 35.9199 34.0269 35.7912 33.5509 35.7912H31.9298C31.8655 35.7912 31.8334 35.8234 31.8334 35.8877V38.4737C31.8334 38.538 31.8655 38.5702 31.9298 38.5702H33.5509ZM51.9346 35.5018C51.9346 35.5918 51.9089 35.6626 51.8574 35.714C51.8059 35.7655 51.7352 35.7912 51.6451 35.7912H45.8749C45.8106 35.7912 45.7785 35.8234 45.7785 35.8877V37.7018C45.7785 37.7661 45.8106 37.7983 45.8749 37.7983H49.4451C49.5352 37.7983 49.6059 37.824 49.6574 37.8754C49.7089 37.9269 49.7346 37.9977 49.7346 38.0877V40.5965C49.7346 40.6866 49.7089 40.7573 49.6574 40.8088C49.6059 40.8602 49.5352 40.886 49.4451 40.886H45.8749C45.8106 40.886 45.7785 40.9181 45.7785 40.9825V42.9895C45.7785 43.0538 45.8106 43.086 45.8749 43.086H51.6451C51.7352 43.086 51.8059 43.1117 51.8574 43.1632C51.9089 43.2146 51.9346 43.2854 51.9346 43.3754V45.9035C51.9346 45.9936 51.9089 46.0643 51.8574 46.1158C51.8059 46.1673 51.7352 46.193 51.6451 46.193H42.4399C42.3498 46.193 42.279 46.1673 42.2276 46.1158C42.1761 46.0643 42.1504 45.9936 42.1504 45.9035V32.9737C42.1504 32.8836 42.1761 32.8129 42.2276 32.7614C42.279 32.71 42.3498 32.6842 42.4399 32.6842H51.6451C51.7352 32.6842 51.8059 32.71 51.8574 32.7614C51.9089 32.8129 51.9346 32.8836 51.9346 32.9737V35.5018ZM64.5038 46.193C64.3237 46.193 64.2143 46.1094 64.1757 45.9421L63.7511 44.4369C63.7254 44.3854 63.6933 44.3597 63.6547 44.3597H59.5634C59.5248 44.3597 59.4927 44.3854 59.4669 44.4369L59.0424 45.9421C59.0038 46.1094 58.8944 46.193 58.7143 46.193H55.4143C55.1827 46.193 55.0991 46.0836 55.1634 45.8649L59.2354 32.9158C59.2868 32.7614 59.3962 32.6842 59.5634 32.6842H63.6547C63.8219 32.6842 63.9313 32.7614 63.9827 32.9158L68.0547 45.8649C68.0675 45.8907 68.074 45.9293 68.074 45.9807C68.074 46.1222 67.9839 46.193 67.8038 46.193H64.5038ZM60.3161 41.4649C60.3032 41.5421 60.3289 41.5807 60.3933 41.5807H62.8055C62.8827 41.5807 62.9085 41.5421 62.8827 41.4649L61.6476 37.1421C61.6348 37.1035 61.6155 37.0842 61.5897 37.0842C61.564 37.0842 61.5447 37.1035 61.5318 37.1421L60.3161 41.4649ZM79.7351 32.6842C79.8251 32.6842 79.8959 32.71 79.9474 32.7614C79.9988 32.8129 80.0245 32.8836 80.0245 32.9737V35.5211C80.0245 35.6111 79.9988 35.6819 79.9474 35.7333C79.8959 35.7848 79.8251 35.8105 79.7351 35.8105H76.493C76.4286 35.8105 76.3965 35.8427 76.3965 35.907V45.9035C76.3965 45.9936 76.3707 46.0643 76.3193 46.1158C76.2678 46.1673 76.1971 46.193 76.107 46.193H73.0579C72.9678 46.193 72.8971 46.1673 72.8456 46.1158C72.7941 46.0643 72.7684 45.9936 72.7684 45.9035V35.907C72.7684 35.8427 72.7362 35.8105 72.6719 35.8105H69.5263C69.4362 35.8105 69.3655 35.7848 69.314 35.7333C69.2626 35.6819 69.2368 35.6111 69.2368 35.5211V32.9737C69.2368 32.8836 69.2626 32.8129 69.314 32.7614C69.3655 32.71 69.4362 32.6842 69.5263 32.6842H79.7351Z" fill="#0D0D0D"/>
</svg>
